<svg width="40" height="40" viewBox="0 0 40 40" fill="none" xmlns="http://www.w3.org/2000/svg">
<path d="M19.6314 27.6061C19.5562 27.038 17.8184 13.5449 21.1604 9.06669C22.8167 6.84309 25.2885 5.36855 28.032 4.96744C30.7755 4.56633 33.5661 5.27151 35.7897 6.92785C38.0133 8.58419 39.4878 11.0561 39.8889 13.7996C40.29 16.5431 39.5848 19.3336 37.9285 21.5572C36.7695 22.9116 35.2986 23.9639 33.6425 24.6234L32.9407 23.1029C34.3344 22.5641 35.5822 21.7056 36.5834 20.5964C37.3155 19.6749 37.8551 18.6157 38.1701 17.4817C38.4851 16.3477 38.5692 15.162 38.4173 13.9949C38.2655 12.8278 37.8807 11.7031 37.286 10.6875C36.6912 9.67192 35.8986 8.78608 34.955 8.0826C34.0115 7.37913 32.9362 6.87233 31.7931 6.59226C30.65 6.31218 29.4622 6.26455 28.3003 6.45218C27.1385 6.6398 26.0261 7.05885 25.0292 7.6845C24.0323 8.31014 23.1713 9.12966 22.4971 10.0944C20.0575 13.3695 20.8261 23.7128 21.2856 27.4223L19.6314 27.6061Z" fill="#21201F"/>
<path d="M27.0437 35.1771C25.6131 35.1736 24.2133 34.762 23.0084 33.9907C19.2487 31.6347 19.1484 23.3216 19.1484 22.9707H20.8194C20.8194 25.1179 21.421 31.0331 23.894 32.5871C26.3671 34.1411 29.3915 33.7485 30.9956 31.5929C31.3932 31.064 31.682 30.4616 31.8456 29.8204C32.0092 29.1793 32.0443 28.5121 31.9487 27.8573C31.8532 27.2025 31.629 26.5732 31.2891 26.0055C30.9491 25.4378 30.5 24.9431 29.9679 24.5498L30.9622 23.213C31.6711 23.7367 32.2695 24.3955 32.7228 25.1514C33.1761 25.9073 33.4755 26.7454 33.6036 27.6174C33.7317 28.4895 33.6861 29.3782 33.4694 30.2326C33.2526 31.0869 32.8691 31.89 32.3408 32.5955C31.7213 33.4102 30.9193 34.0681 29.9993 34.5165C29.0794 34.9649 28.067 35.1911 27.0437 35.1771Z" fill="#21201F"/>
<path d="M29.9683 24.5413C29.1328 23.8896 27.1611 23.5303 24.5293 23.5303V21.8594C27.6122 21.8594 29.7762 22.3106 30.9626 23.2045L29.9683 24.5413Z" fill="#21201F"/>
<path d="M20.3759 27.6063L18.7049 27.3891C19.1979 23.6795 19.9332 13.3362 17.5019 10.0611C16.0966 8.22697 14.0255 7.02002 11.7369 6.70143C9.44838 6.38284 7.1264 6.97826 5.27356 8.35883C3.42072 9.7394 2.18606 11.7941 1.83677 14.0782C1.48748 16.3622 2.05171 18.6919 3.40728 20.5632C4.41354 21.6704 5.66347 22.5285 7.05834 23.0696L6.3482 24.5902C4.69559 23.9286 3.22774 22.8766 2.07043 21.524C0.414084 19.3004 -0.291094 16.5099 0.110016 13.7663C0.511126 11.0228 1.98572 8.55099 4.20931 6.89464C6.43291 5.2383 9.22338 4.53312 11.9669 4.93423C14.7104 5.33535 17.1823 6.80989 18.8387 9.03348C22.1889 13.5785 20.4511 27.0382 20.3759 27.6063Z" fill="#21201F"/>
<path d="M12.9658 35.1757C11.9418 35.1887 10.929 34.9612 10.009 34.5114C9.08898 34.0615 8.28745 33.4019 7.66889 32.5857C7.14011 31.8807 6.75595 31.0781 6.53856 30.2241C6.32116 29.3701 6.27485 28.4815 6.4022 27.6094C6.52954 26.7374 6.82807 25.8992 7.28062 25.143C7.73316 24.3868 8.33079 23.7276 9.03909 23.2033L10.0416 24.54C9.50952 24.9333 9.06055 25.4281 8.72058 25.9957C8.38062 26.5634 8.15636 27.1928 8.06083 27.8475C7.96529 28.5023 8.00035 29.1695 8.16394 29.8106C8.32752 30.4518 8.61645 31.0542 9.014 31.5831C10.6181 33.7387 13.6008 34.1481 16.1156 32.5774C18.6304 31.0067 19.1735 25.1081 19.1902 22.9609H20.8612C20.8612 23.3118 20.761 31.6249 17.0013 33.981C15.7954 34.751 14.3966 35.1651 12.9658 35.1757Z" fill="#21201F"/>
<path d="M10.0416 24.5413L9.03906 23.2045C10.2338 22.3106 12.381 21.8594 15.4806 21.8594V23.5303C12.8405 23.5303 10.9105 23.8896 10.0416 24.5413Z" fill="#21201F"/>
</svg>
