<svg width="40" height="40" viewBox="0 0 40 40" fill="none" xmlns="http://www.w3.org/2000/svg">
<path d="M29.6507 34.9077V33.2456C31.1326 33.256 32.5923 32.8853 33.8895 32.1689C35.1868 31.4525 36.278 30.4146 37.0585 29.1548C37.839 27.8951 38.2824 26.4558 38.3463 24.9753C38.4101 23.4947 38.0921 22.0227 37.423 20.7004C36.7539 19.3782 35.7561 18.2502 34.5253 17.4248C33.2945 16.5994 31.8722 16.1044 30.3949 15.9872C28.9177 15.87 27.435 16.1346 26.0895 16.7556C24.744 17.3766 23.5808 18.3332 22.7115 19.5334L21.3652 18.5528C22.4034 17.1273 23.7901 15.992 25.3925 15.2557C26.995 14.5194 28.7595 14.2066 30.5174 14.3473C32.2753 14.488 33.9676 15.0775 35.4325 16.0593C36.8974 17.0412 38.0858 18.3825 38.884 19.955C39.6823 21.5275 40.0636 23.2785 39.9915 25.0406C39.9194 26.8026 39.3963 28.5167 38.4724 30.0187C37.5484 31.5208 36.2544 32.7606 34.7142 33.6195C33.174 34.4784 31.4392 34.9277 29.6757 34.9243L29.6507 34.9077Z" fill="#21201F"/>
<path d="M29.6422 34.9068H11.218C8.30803 34.9525 5.49762 33.8478 3.39769 31.8328C1.29777 29.8178 0.0780773 27.0555 0.00361944 24.1461C-0.0708385 21.2368 1.00603 18.4156 3.00013 16.2959C4.99423 14.1762 7.74435 12.9291 10.6528 12.8259C11.1732 10.5959 12.4404 8.61077 14.2442 7.19993C16.0479 5.78909 18.2798 5.03732 20.5695 5.06934C22.8593 5.10136 25.0692 5.91525 26.8328 7.37597C28.5964 8.83669 29.8076 10.8565 30.2654 13.1002L28.6033 13.4326C28.2115 11.5105 27.1575 9.78691 25.6251 8.56225C24.0927 7.33759 22.1791 6.68954 20.2179 6.73108C18.2567 6.77261 16.3723 7.5011 14.8931 8.78954C13.414 10.078 12.4339 11.8447 12.1238 13.7816L12.0074 14.4963H11.2844L11.1847 13.6653V14.4963C8.74353 14.569 6.42666 15.5898 4.72562 17.3422C3.02458 19.0946 2.07322 21.4407 2.07322 23.883C2.07322 26.3252 3.02458 28.6714 4.72562 30.4238C6.42666 32.1762 8.74353 33.197 11.1847 33.2696H29.609C31.9012 33.2696 34.0995 32.359 35.7204 30.7382C37.3412 29.1173 38.2518 26.919 38.2518 24.6268C38.2518 22.3345 37.3412 20.1362 35.7204 18.5153C34.0995 16.8945 31.9012 15.9839 29.609 15.9839V14.3218C32.342 14.3218 34.9631 15.4075 36.8956 17.3401C38.8282 19.2726 39.9139 21.8937 39.9139 24.6268C39.9139 27.3598 38.8282 29.9809 36.8956 31.9135C34.9631 33.846 32.342 34.9317 29.609 34.9317L29.6422 34.9068Z" fill="#21201F"/>
</svg>
