<svg width="40" height="40" viewBox="0 0 40 40" fill="none" xmlns="http://www.w3.org/2000/svg">
<path d="M21.8091 28.9865C21.456 28.7217 13.1582 22.3578 13.1582 15.1914C13.1582 6.67684 21.4721 0.601881 21.8252 0.353104L22.3067 0L22.7802 0.361137C23.1333 0.625964 31.4231 6.98979 31.4231 14.1642C31.4231 19.5089 28.1489 23.9227 25.4043 26.6833L24.2648 25.5517C26.8008 23.0078 29.8181 18.9632 29.8181 14.1642C29.8181 8.70715 24.0081 3.45876 22.2827 2.02228C20.5573 3.42666 14.7632 8.6189 14.7632 15.1914C14.7632 21.6115 22.7 27.6463 22.7883 27.7105L21.8091 28.9865Z" fill="#21201F"/>
<path d="M30.1953 34.0255C29.5886 34.0317 28.9822 33.9915 28.3816 33.9052L27.7958 33.8089L27.7155 33.223C27.7155 32.9903 26.9612 27.5493 29.6737 24.8448C32.8837 21.6348 38.2123 22.4775 38.445 22.5176L39.0229 22.6139L39.1031 23.1997C39.1031 23.4324 39.8574 28.8734 37.1449 31.5779C35.0745 33.6483 32.0732 34.0255 30.1953 34.0255ZM29.2483 32.3804C30.6126 32.4847 33.9671 32.4928 36.0135 30.4464C37.6987 28.7611 37.6666 25.4227 37.5703 24.0263C36.206 23.93 32.8516 23.922 30.8052 25.9684C29.128 27.6617 29.152 31.0322 29.2483 32.3804Z" fill="#21201F"/>
<path d="M23.0933 8.0957H21.4883V39.7465H23.0933V8.0957Z" fill="#21201F"/>
<path d="M28.0016 32.6175L21.7539 38.8652L22.8888 40.0001L29.1365 33.7524L28.0016 32.6175Z" fill="#21201F"/>
<path d="M13.1259 35.8482C10.5177 35.8482 6.441 35.3266 3.60815 32.5018C-0.0753459 28.8103 0.903664 21.3229 0.951814 21.0019L1.03205 20.4161L1.61796 20.3198C1.93093 20.2716 9.28188 19.1321 13.6555 23.5298C17.3471 27.2213 16.3599 34.7087 16.3198 35.0216L16.2315 35.6155L15.6538 35.7038C14.8164 35.8199 13.971 35.8682 13.1259 35.8482ZM2.47659 21.8365C2.34017 23.61 2.17161 28.7862 4.74765 31.3622C7.86137 34.484 13.0215 34.3235 14.779 34.163C14.9234 32.3814 15.092 27.2053 12.5159 24.6292C9.40222 21.4834 4.23408 21.6439 2.47659 21.8044V21.8365Z" fill="#21201F"/>
<path d="M16 34.275L14.8652 35.4102L18.1173 38.6611L19.252 37.526L16 34.275Z" fill="#21201F"/>
</svg>
